<mxfile host="app.diagrams.net" modified="2023-02-28T07:42:35.992Z" agent="5.0 (Windows NT 10.0; Win64; x64) AppleWebKit/537.36 (KHTML, like Gecko) Chrome/100.0.4896.127 Safari/537.36" etag="oCTheYFf3thpejECGouJ" version="20.8.23" type="github">
  <diagram name="第 1 页" id="Wj8tdZmImzfC-mOhaRWr">
    <mxGraphModel dx="1430" dy="775" grid="1" gridSize="10" guides="1" tooltips="1" connect="1" arrows="1" fold="1" page="1" pageScale="1" pageWidth="827" pageHeight="1169" background="#ffffff" math="0" shadow="0">
      <root>
        <mxCell id="0" />
        <mxCell id="1" parent="0" />
        <mxCell id="-pgsPlfrXypu3agC9rAU-3" value="内网" style="rounded=1;whiteSpace=wrap;html=1;dashed=1;strokeWidth=2;fillColor=#f5f5f5;fontColor=#333333;strokeColor=#666666;" vertex="1" parent="1">
          <mxGeometry x="139" y="170" width="100" height="40" as="geometry" />
        </mxCell>
        <mxCell id="-pgsPlfrXypu3agC9rAU-4" value="" style="rounded=1;whiteSpace=wrap;html=1;dashed=1;strokeWidth=2;fillColor=#f5f5f5;fontColor=#333333;strokeColor=#666666;" vertex="1" parent="1">
          <mxGeometry x="98" y="282" width="190" height="130" as="geometry" />
        </mxCell>
        <mxCell id="-pgsPlfrXypu3agC9rAU-8" value="" style="rounded=1;whiteSpace=wrap;html=1;dashed=1;strokeWidth=2;" vertex="1" parent="1">
          <mxGeometry x="350" y="150" width="190" height="260" as="geometry" />
        </mxCell>
        <mxCell id="-pgsPlfrXypu3agC9rAU-10" value="拟态变形&lt;br&gt;子系统" style="rounded=1;whiteSpace=wrap;html=1;strokeWidth=2;fontSize=14;fillColor=#e1d5e7;strokeColor=#9673a6;" vertex="1" parent="1">
          <mxGeometry x="370" y="190" width="100" height="45" as="geometry" />
        </mxCell>
        <mxCell id="-pgsPlfrXypu3agC9rAU-13" value="流&lt;br&gt;量&lt;br&gt;处&lt;br&gt;理&lt;br&gt;子&lt;br&gt;系&lt;br&gt;统" style="rounded=1;whiteSpace=wrap;html=1;strokeWidth=2;fontSize=14;fillColor=#d5e8d4;strokeColor=#82b366;" vertex="1" parent="1">
          <mxGeometry x="490" y="175" width="30" height="195" as="geometry" />
        </mxCell>
        <mxCell id="-pgsPlfrXypu3agC9rAU-14" value="网络服务&lt;br&gt;子系统" style="rounded=1;whiteSpace=wrap;html=1;strokeWidth=2;fontSize=14;fillColor=#fff2cc;strokeColor=#d6b656;" vertex="1" parent="1">
          <mxGeometry x="370" y="257.5" width="100" height="45" as="geometry" />
        </mxCell>
        <mxCell id="-pgsPlfrXypu3agC9rAU-15" value="动态节点虚拟&lt;br&gt;子系统" style="rounded=1;whiteSpace=wrap;html=1;strokeWidth=2;fontSize=14;fillColor=#dae8fc;strokeColor=#6c8ebf;" vertex="1" parent="1">
          <mxGeometry x="370" y="320" width="100" height="45" as="geometry" />
        </mxCell>
        <mxCell id="-pgsPlfrXypu3agC9rAU-16" value="系统管理&lt;br&gt;子系统" style="rounded=1;whiteSpace=wrap;html=1;strokeWidth=2;fontSize=14;fillColor=#f8cecc;strokeColor=#b85450;" vertex="1" parent="1">
          <mxGeometry x="700" y="262.5" width="100" height="45" as="geometry" />
        </mxCell>
        <mxCell id="-pgsPlfrXypu3agC9rAU-17" value="" style="shape=doubleArrow;whiteSpace=wrap;html=1;strokeColor=#006EAF;strokeWidth=2;fontSize=14;fillColor=#1ba1e2;fontColor=#ffffff;" vertex="1" parent="1">
          <mxGeometry x="546" y="280" width="154" height="10" as="geometry" />
        </mxCell>
        <mxCell id="-pgsPlfrXypu3agC9rAU-18" value="&lt;font style=&quot;font-size: 12px;&quot;&gt;管理控制调度&lt;/font&gt;" style="text;html=1;strokeColor=none;fillColor=none;align=center;verticalAlign=middle;whiteSpace=wrap;rounded=0;fontSize=14;" vertex="1" parent="1">
          <mxGeometry x="580.5" y="285" width="89" height="30" as="geometry" />
        </mxCell>
        <mxCell id="-pgsPlfrXypu3agC9rAU-19" value="&lt;font style=&quot;font-size: 12px;&quot;&gt;网络拓扑&lt;br&gt;网络地址&lt;br&gt;网络服务等&lt;/font&gt;" style="text;html=1;strokeColor=none;fillColor=none;align=center;verticalAlign=middle;whiteSpace=wrap;rounded=0;fontSize=14;" vertex="1" parent="1">
          <mxGeometry x="250.5" y="140" width="89" height="30" as="geometry" />
        </mxCell>
        <mxCell id="-pgsPlfrXypu3agC9rAU-20" value="" style="shape=doubleArrow;whiteSpace=wrap;html=1;strokeColor=#006EAF;strokeWidth=2;fontSize=14;fillColor=#1ba1e2;fontColor=#ffffff;" vertex="1" parent="1">
          <mxGeometry x="245" y="185" width="100" height="10" as="geometry" />
        </mxCell>
        <mxCell id="-pgsPlfrXypu3agC9rAU-22" value="" style="rhombus;whiteSpace=wrap;html=1;strokeWidth=2;fillWeight=-1;hachureGap=8;fillStyle=cross-hatch;fillColor=#1ba1e2;sketch=1;strokeColor=#006EAF;fontSize=12;fontColor=#ffffff;" vertex="1" parent="1">
          <mxGeometry x="120" y="350" width="50" height="30" as="geometry" />
        </mxCell>
        <mxCell id="-pgsPlfrXypu3agC9rAU-23" value="" style="ellipse;whiteSpace=wrap;html=1;aspect=fixed;strokeColor=default;strokeWidth=2;fontSize=12;fillColor=#bac8d3;dashed=1;" vertex="1" parent="1">
          <mxGeometry x="207.5" y="300" width="37.5" height="37.5" as="geometry" />
        </mxCell>
        <mxCell id="-pgsPlfrXypu3agC9rAU-24" value="" style="triangle;whiteSpace=wrap;html=1;dashed=1;strokeColor=default;strokeWidth=2;fontSize=12;rotation=-90;" vertex="1" parent="1">
          <mxGeometry x="139" y="287.5" width="30" height="40" as="geometry" />
        </mxCell>
        <mxCell id="-pgsPlfrXypu3agC9rAU-26" value="" style="html=1;shadow=0;dashed=0;align=center;verticalAlign=middle;shape=mxgraph.arrows2.tailedNotchedArrow;dy1=10;dx1=20;notch=20;arrowHead=20;dx2=25;dy2=30;strokeColor=#C2CDDB;strokeWidth=1;fontSize=12;rotation=90;fillColor=#eeeeee;aspect=fixed;" vertex="1" parent="1">
          <mxGeometry x="155" y="242" width="70" height="8" as="geometry" />
        </mxCell>
        <mxCell id="-pgsPlfrXypu3agC9rAU-28" value="&lt;font style=&quot;font-size: 14px;&quot;&gt;&lt;b&gt;......&lt;/b&gt;&lt;/font&gt;" style="text;html=1;strokeColor=none;fillColor=none;align=center;verticalAlign=middle;whiteSpace=wrap;rounded=0;fontSize=8;" vertex="1" parent="1">
          <mxGeometry x="196.25" y="350" width="60" height="30" as="geometry" />
        </mxCell>
        <mxCell id="-pgsPlfrXypu3agC9rAU-29" style="edgeStyle=orthogonalEdgeStyle;rounded=0;orthogonalLoop=1;jettySize=auto;html=1;exitX=0.5;exitY=1;exitDx=0;exitDy=0;fontSize=14;" edge="1" parent="1" source="-pgsPlfrXypu3agC9rAU-28" target="-pgsPlfrXypu3agC9rAU-28">
          <mxGeometry relative="1" as="geometry" />
        </mxCell>
      </root>
    </mxGraphModel>
  </diagram>
</mxfile>
